<svg version="1.1" id="Capa_1" xmlns="http://www.w3.org/2000/svg" x="0" y="0" viewBox="0 0 512 512" xml:space="preserve"><path d="M461.787 435.986h-51.806V296.997c0-5.523-4.478-9.999-9.999-9.999-5.522 0-9.999 4.477-9.999 9.999v138.989H121.991c-5.522 0-9.999 4.477-9.999 9.999 0 25.362-20.634 45.996-45.996 45.996S20 471.347 20 445.985V68.014h133.711c5.522 0 9.999-4.477 9.999-9.999s-4.478-9.999-9.999-9.999H19.998V20.018h369.995v10.217c0 5.523 4.478 9.999 9.999 9.999 5.522 0 9.999-4.477 9.999-9.999V10.019c0-5.523-4.478-9.999-9.999-9.999H9.999C4.478.02 0 4.496 0 10.019v435.967c0 35.266 27.804 64.16 62.642 65.911.427.055.861.084 1.303.084h341.846c36.39 0 65.995-29.605 65.995-65.995 0-5.523-4.477-10-9.999-10zm-55.996 55.996H113.276c9.373-9.632 15.838-22.11 17.958-35.997h319.459c-4.579 20.569-22.973 35.997-44.902 35.997z"/></svg>