<svg version="1.1" id="Capa_1" xmlns="http://www.w3.org/2000/svg" xmlns:xlink="http://www.w3.org/1999/xlink" x="0px" y="0px"
	 viewBox="0 0 512 512" style="enable-background:new 0 0 512 512;" xml:space="preserve">
<path d="M496.956,35.279L496.956,35.279c-20.025-20.025-52.608-20.024-72.634,0l-1.512,1.511c-0.001,0.002-0.003,0.003-0.005,0.005
	c-0.003,0.003-0.006,0.007-0.01,0.01l-44.12,44.12c-0.001,0.002-0.003,0.003-0.005,0.005c-0.003,0.003-0.006,0.007-0.01,0.01
	L255.388,204.213c-30.172-6-61.756,3.433-83.649,25.324c-28.553,28.553-26.538,55.759-24.59,82.069
	c1.551,20.939,3.154,42.592-8.937,69.176c-1.291,2.837-1.185,6.114,0.287,8.861c1.472,2.748,4.141,4.652,7.217,5.15
	c17.396,2.816,33.728,4.222,48.975,4.222c46.161,0,82.372-12.885,108.006-38.518c0.146-0.146,0.284-0.296,0.428-0.443
	c0.271-0.252,0.529-0.517,0.77-0.796c21.028-21.833,30.014-52.797,24.126-82.409l168.935-168.935
	C506.656,98.212,512,85.315,512,71.596S506.656,44.979,496.956,35.279z M431.218,145.368c-9.838-12.512-15.191-27.832-15.191-43.975
	c0-19.048,7.429-36.968,20.92-50.458l1.517-1.517c0.705-0.705,1.439-1.37,2.197-1.998c-2.689,24.401,4.569,48.878,20.464,68.04
	L431.218,145.368z M416.989,159.598l-29.905,29.905c-9.838-12.512-15.191-27.832-15.191-43.975c0-19.047,7.428-36.965,20.917-50.455
	l3.789-3.789c-0.366,3.336-0.57,6.706-0.57,10.109C396.029,122.885,403.42,143.247,416.989,159.598z M372.855,203.732l-9.729,9.729
	l-44.352-44.352l33.69-33.69c-0.366,3.336-0.57,6.705-0.57,10.109C351.894,167.02,359.286,187.381,372.855,203.732z
	 M304.632,183.252l44.352,44.352l-31.942,31.942l-44.352-44.352L304.632,183.252z M161.296,376.828
	c8.83-25.735,7.23-47.336,5.798-66.699c-0.875-11.814-1.632-22.123-0.073-31.955c0.044-0.025,0.089-0.043,0.133-0.069
	c0.121-0.071,12.506-6.971,26.356-2.348c12.121,4.049,22.293,15.723,30.234,34.699c12.804,30.6,31.909,43.202,45.682,48.384
	c0.833,0.314,1.654,0.598,2.468,0.868C244.969,376.884,207.917,382.632,161.296,376.828z M291.675,343.029
	c-8.688,0.036-33.979-3.239-49.484-40.291c-10.265-24.533-24.513-39.992-42.348-45.949c-8.468-2.828-16.488-3.032-23.248-2.157
	c2.503-3.588,5.552-7.221,9.285-10.955c17.644-17.644,43.323-24.969,67.578-19.434l54.532,54.533
	C313.184,301.55,307.045,325.576,291.675,343.029z M482.815,93.771l-7.469,7.469c-13.538-17.223-18.406-39.573-13.142-60.968
	c7.789,0.38,15.058,3.594,20.61,9.147l0,0c5.925,5.924,9.187,13.799,9.187,22.175S488.739,87.848,482.815,93.771z"/>
  </svg>