<svg version="1.1" id="Capa_1" xmlns="http://www.w3.org/2000/svg" xmlns:xlink="http://www.w3.org/1999/xlink" x="0px" y="0px"
	 viewBox="0 0 512 512" style="enable-background:new 0 0 512 512;" xml:space="preserve">
<path d="M461.787,435.986h-51.806V296.997c0-5.523-4.478-9.999-9.999-9.999c-5.522,0-9.999,4.477-9.999,9.999v138.989H121.991
	c-5.522,0-9.999,4.477-9.999,9.999c0,25.362-20.634,45.996-45.996,45.996s-45.996-20.634-45.996-45.996V68.014h133.711
	c5.522,0,9.999-4.477,9.999-9.999s-4.478-9.999-9.999-9.999H19.998V20.018h369.995v10.217c0,5.523,4.478,9.999,9.999,9.999
	c5.522,0,9.999-4.477,9.999-9.999V10.019c0-5.523-4.478-9.999-9.999-9.999H9.999C4.478,0.02,0,4.496,0,10.019v435.967
	c0,35.266,27.804,64.16,62.642,65.911c0.427,0.055,0.861,0.084,1.303,0.084h341.846c36.39,0,65.995-29.605,65.995-65.995
	C471.786,440.463,467.309,435.986,461.787,435.986z M405.791,491.982H113.276c9.373-9.632,15.838-22.11,17.958-35.997h319.459
	C446.114,476.554,427.72,491.982,405.791,491.982z"/>
</svg>
