<svg xmlns="http://www.w3.org/2000/svg" width="262" height="78.914"><g data-name="Group 2"><text data-name="the cipa" transform="translate(86 60)" font-size="50" font-family="ArialMT, Arial"><tspan x="0" y="0">the cipa</tspan></text><g data-name="Rectangle 1" fill="#fff" stroke="#000" stroke-linecap="round" stroke-linejoin="round" stroke-width="2"><path d="M0 0h80v70H0z" stroke="none"/><path fill="none" d="M1 1h78v68H1z"/></g><g data-name="Group 2" fill="none" stroke="#000" stroke-linecap="round" stroke-width="2"><path data-name="Line 1" d="M35.5 69.5l-8 8"/><path data-name="Line 3" d="M45.5 69.5l8 8"/><path data-name="Line 4" d="M18.5 77.5h44"/></g><g data-name="Ellipse 1" transform="translate(37 60)" fill="#87d6b4" stroke="#87d6b4"><circle cx="3.5" cy="3.5" r="3.5" stroke="none"/><circle cx="3.5" cy="3.5" r="3" fill="none"/></g><g data-name="Rectangle 3" fill="#6b5947" stroke="#6b5947"><path d="M49 62h3v3h-3z" stroke="none"/><path fill="none" d="M49.5 62.5h2v2h-2z"/></g><g data-name="Rectangle 4" fill="#6b5947" stroke="#6b5947"><path d="M29 62h3v3h-3z" stroke="none"/><path fill="none" d="M29.5 62.5h2v2h-2z"/></g><g data-name="Rectangle 2" fill="#bb9c9c" stroke="#000" stroke-linecap="round" stroke-linejoin="round" stroke-width="2"><path d="M10 9h60v50H10z" stroke="none"/><path fill="none" d="M11 10h58v48H11z"/></g><g data-name="Group 1" fill="none" stroke="#fff" stroke-linecap="round" stroke-width="2"><path data-name="Line 5" d="M29.5 29.5l-8 7"/><path data-name="Line 6" d="M21.5 36.5l8 8"/><path data-name="Line 7" d="M50.5 44.5l8-7"/><path data-name="Line 8" d="M58.5 37.5l-8-8"/><path data-name="Line 9" d="M41.5 28.5l-3 16"/></g><path data-name="Path 1" d="M16.831 18.4h2.985l1.767-2.852 1.439 2.852h2.959l-2.609 2.294 1.048 3.251-2.836-2.114-2.675 2.112.555-3.251-2.633-2.292" fill="#fff" stroke="#fff" stroke-linecap="round" stroke-linejoin="round"/></g></svg>