 <svg display="none" xmlns="http://www.w3.org/2000/svg">
<!-- HTML -->

<symbol id="html__bg" viewBox="0 0 512 512">
<g>
<polygon style="fill:currentFill;" points="32,0 72.8,460.8 256,512 439.136,460.832 480,0 "/>
</g>
</symbol>
<!-- HTML -->

<symbol id="html__chars" viewBox="0 0 512 512">
<g>
<polygon style="fill:currentFill;" points="391.52,150.688 256,150.688 176.8,150.688 181.92,208.576 256,208.576 386.4,208.576 
	371.008,382.144 256,414.24 255.904,414.272 140.96,382.144 132.928,291.36 189.248,291.36 193.44,338.464 255.936,355.456 
	256,355.424 256,355.424 318.56,338.432 325.088,265.12 256,265.12 256,265.12 130.624,265.12 115.456,94.208 256,94.208 
	396.512,94.208 "/>
</g>
</symbol>
<!-- CSS -->

<symbol id="css" viewBox="0 0 128 128">
<g>
<path fill="currentFill" d="M8.76 1l10.055 112.883 45.118 12.58 45.244-12.626 10.063-112.837h-110.48zm89.591 25.862l-3.347 37.605.01.203-.014.467v-.004l-2.378 26.294-.262 2.336-28.36 7.844v.001l-.022.019-28.311-7.888-1.917-21.739h13.883l.985 11.054 15.386 4.17-.004.008v-.002l15.443-4.229 1.632-18.001h-32.282999999999994l-.277-3.043-.631-7.129-.331-3.828h34.748999999999995l1.264-14h-52.926l-.277-3.041-.63-7.131-.332-3.828h69.281l-.331 3.862z"/>
</g>
</symbol>
<!-- JS -->

<symbol id="js__bg" viewBox="0 0 128 128">
<g>
<path fill="currentFill" d="M1.408 1.408h125.184v125.185h-125.184z"/>
</g>
</symbol>
<!-- JS -->

<symbol id="js__chars" viewBox="0 0 128 128">
<g>
<path fill="currentFill" d="M116.347 96.736c-.917-5.711-4.641-10.508-15.672-14.981-3.832-1.761-8.104-3.022-9.377-5.926-.452-1.69-.512-2.642-.226-3.665.821-3.32 4.784-4.355 7.925-3.403 2.023.678 3.938 2.237 5.093 4.724 5.402-3.498 5.391-3.475 9.163-5.879-1.381-2.141-2.118-3.129-3.022-4.045-3.249-3.629-7.676-5.498-14.756-5.355l-3.688.477c-3.534.893-6.902 2.748-8.877 5.235-5.926 6.724-4.236 18.492 2.975 23.335 7.104 5.332 17.54 6.545 18.873 11.531 1.297 6.104-4.486 8.08-10.234 7.378-4.236-.881-6.592-3.034-9.139-6.949-4.688 2.713-4.688 2.713-9.508 5.485 1.143 2.499 2.344 3.63 4.26 5.795 9.068 9.198 31.76 8.746 35.83-5.176.165-.478 1.261-3.666.38-8.581zm-46.885-37.793h-11.709l-.048 30.272c0 6.438.333 12.34-.714 14.149-1.713 3.558-6.152 3.117-8.175 2.427-2.059-1.012-3.106-2.451-4.319-4.485-.333-.584-.583-1.036-.667-1.071l-9.52 5.83c1.583 3.249 3.915 6.069 6.902 7.901 4.462 2.678 10.459 3.499 16.731 2.059 4.082-1.189 7.604-3.652 9.448-7.401 2.666-4.915 2.094-10.864 2.07-17.444.06-10.735.001-21.468.001-32.237z"/>
</g>
</symbol>
<!-- Gulp -->

<symbol id="gulp" viewBox="0 0 128 128">
<g>
<path fill-rule="evenodd" clip-rule="evenodd" fill="#currentFill" d="M36.965 35.459c.877 9.232 1.747 18.412 2.637 27.798 1.451-2.495 2.501-4.888 4.085-6.848 1.475-1.826 3.334-3.511 5.357-4.678 2.641-1.524 6.104-.089 6.96 2.614.23.725-.319 1.697-.511 2.556-.646-.341-1.479-.529-1.901-1.051-1.793-2.217-2.873-2.479-4.856-.563-3.699 3.576-5.779 8.056-6.573 13.091-.153.974.456 2.067.713 3.105 1.011-.348 2.185-.476 3.002-1.084 2.656-1.977 4.302-4.666 5.21-7.88.197-.696 1.265-1.145 1.933-1.708.32.658 1.05 1.433.897 1.954-1.407 4.84-2.934 9.649-4.536 14.429-.162.484-1.051.725-1.604 1.079-.223-.636-.692-1.302-.617-1.901.168-1.358.605-2.683.91-3.927l-7.24 3.333c.405 4.622.825 9.807 1.323 14.985.382 3.954 1.029 4.978 4.923 5.728 4.544.875 9.173 1.434 13.792 1.774 6.825.503 13.59-.119 20.23-1.904 2.472-.664 3.458-2.29 3.635-4.717.162-2.235.524-4.456.775-6.685.493-4.391.972-8.783 1.476-13.358-1.667 1.056-2.978 2.238-4.511 2.739-1.116.365-2.524-.169-3.803-.303.245-1.174.23-2.497.796-3.487.922-1.618 2.224-3.021 3.364-4.515l-.491-.591c-.817.483-1.832.8-2.413 1.485-1.182 1.394-2.339 2.886-3.13 4.52-1.324 2.735-2.333 5.622-3.518 8.426-.515 1.216-.959 3.076-2.684 2.366-1.845-.761-.547-2.386-.114-3.542.689-1.844 1.599-3.606 2.215-4.962-1.746.208-3.516.459-5.294.614-.752.064-1.646-.348-2.261-.07-2.045.924-3.341.553-3.766-1.711-.947.615-1.749 1.448-2.694 1.672-1.147.273-2.703.452-3.543-.121-.673-.459-.918-2.184-.688-3.196.457-2.012 1.311-3.946 2.122-5.859.502-1.185 1.007-3.077 2.701-2.253 1.674.813.154 2.185-.232 3.286-.599 1.702-1.209 3.401-1.813 5.101l.96.58c.914-.794 2.053-1.441 2.693-2.415 1.048-1.592 1.681-3.452 2.673-5.086.411-.677 1.296-1.065 1.967-1.584.136.862.462 1.748.354 2.58-.107.841-.698 1.61-.981 2.442-.425 1.246-.768 2.52-1.2 3.969 2.043.078 2.918-.782 3.495-2.299 1.826-4.793 3.672-9.581 5.679-14.3.343-.808 1.509-1.264 2.296-1.884.091.974.525 2.078.216 2.899-1.645 4.349-3.492 8.62-5.228 12.935-.293.727-.387 1.534-.572 2.304 3.059-1.375 5.612-2.895 6.544-6.146.228-.79 1.162-1.377 1.771-2.058l1.416 1.5c.43-.362.824-.774 1.291-1.075 1.47-.947 3.053-1.782 4.603-.315 1.604 1.517.39 2.995-.448 4.307-.912 1.431-2.029 2.73-3.057 4.086 2.312-1.49 5.469-2.158 5.889-5.378 1.024-7.865 1.924-15.746 2.837-23.625.271-2.332.416-4.679.627-7.109-18.21 4.409-36.029 4.436-54.088-.069zM44.781 96.828c.877 2.317 2.209 4.593 2.558 7.011.737 5.147.924 10.372 1.446 15.554.076.755.565 1.792 1.175 2.124 8.98 4.88 18.047 5.726 27.209.389 1.367-.796 1.62-1.847 1.797-3.325.857-7.181-1.051-14.798 3.54-21.56-12.856 3.189-25.403 3.288-37.725-.193zM75.772 36.748c4.362-.421 8.671-1.445 12.985-2.291.813-.159 1.535-.778 2.299-1.185-1.007-.885-1.878-1.311-2.788-1.418-4.53-.535-9.076-.947-13.603-1.508-.684-.085-1.905-.929-1.854-1.083 1.321-3.98 1.256-8.485 4.254-11.839 3.789-4.24 7.617-8.443 11.416-12.648-2.826-3.04-2.864-3.044-5.425-.383-1.448 1.504-2.771 3.15-4.342 4.512-5.813 5.038-9.896 11.005-10.692 18.872-.183 1.805-1.174 2.457-3.069 2.485-6.256.091-12.519.263-18.761.674-3.093.203-6.148.997-9.221 1.523l-.028 1.149c1.923.593 3.809 1.372 5.773 1.749 10.944 2.098 21.991 2.458 33.056 1.391zm-3.496-2.748c-2.477 2-4.524 2-6.501 0h6.501z"/>
</g>
</symbol>
<!-- Gulp -->

<symbol id="bootstrap" viewBox="0 0 128 128">
<g>
<path fill="#currentFill" d="M75.701 65.603c-2.334-.768-5.694-.603-10.08-.603h-17.621v23h18.844c2.944 0 5.012-.315 6.203-.535 2.099-.376 3.854-1.104 5.264-1.982 1.409-.876 2.568-2.205 3.478-3.881.908-1.676 1.363-3.637 1.363-5.83 0-2.568-.658-4.54-1.975-6.436-1.316-1.896-3.141-2.965-5.476-3.733zM73.282 55.087c2.317-.688 4.064-1.89 5.239-3.487 1.176-1.598 1.763-3.631 1.763-6.044 0-2.286-.549-4.314-1.646-6.054s-2.662-2.413-4.699-3.056c-2.037-.641-5.53-.446-10.48-.446h-15.459v20h16.587c4.042 0 6.939-.38 8.695-.913zM126 18.625c0-9.182-7.443-16.625-16.625-16.625h-91.75c-9.182 0-16.625 7.443-16.625 16.625v91.75c0 9.182 7.443 16.625 16.625 16.625h91.75c9.182 0 16.625-7.443 16.625-16.625v-91.75zm-35.447 66.12c-1.362 2.773-3.047 4.911-5.052 6.415-2.006 1.504-4.521 2.78-7.544 3.548-3.022.769-6.728 1.292-11.113 1.292h-27.844v-69h27.42c5.264 0 9.485.609 12.665 2.002 3.181 1.395 5.671 3.497 7.474 6.395 1.801 2.898 2.702 5.907 2.702 9.071 0 2.945-.8 5.708-2.397 8.308-1.598 2.602-4.011 4.694-7.237 6.292 4.166 1.222 7.37 3.304 9.61 6.248 2.24 2.945 3.36 6.422 3.36 10.432 0 3.227-.681 6.225-2.044 8.997z"/>
</g>
</symbol>
<!-- Webp -->

<symbol id="webp__border" viewBox="0 0 24 24">
<g>
<path fill="#currentFill" d="M22,3H2C0.8969727,3,0,3.8969727,0,5v14c0,1.1030273,0.8969727,2,2,2h20c1.1030273,0,2-0.8969727,2-2V5
		C24,3.8969727,23.1030273,3,22,3z"/>
</g>
</symbol>
<!-- Webp -->

<symbol id="webp__sky" viewBox="0 0 24 24">
<g>
<path fill="#currentFill" d="M1,5c0-0.5512695,0.4487305-1,1-1h20c0.5512695,0,1,0.4487305,1,1v12.2929688l-7.6464844-7.6464844
		c-0.1953125-0.1953125-0.5117188-0.1953125-0.7070313,0L8.5,15.7929688l-2.1464844-2.1464844
		c-0.1953125-0.1953125-0.5117188-0.1953125-0.7070313,0L1,18.2929688V5z"/>
	</g>
</symbol>
<!-- Webp -->

<symbol id="webp__mountain" viewBox="0 0 24 24">
<g>
<path fill="#currentFill" d="M22,20H2c-0.3514404,0-0.6463623-0.1931152-0.8247681-0.4682007L6,14.7070313l3.1464844,3.1464844
		c0.1953125,0.1953125,0.5117188,0.1953125,0.7070313,0s0.1953125-0.5117188,0-0.7070313L9.2070313,16.5L15,10.7070313l8,8V19
		C23,19.5512695,22.5512695,20,22,20z"/>
</g>
</symbol>
<!-- Webp -->

<symbol id="webp__borderSun" viewBox="0 0 24 24">
<g>
	<path opacity="0.1" fill="#010101" d="M22.6367188,18.34375c-0.1801758,0.2644043-0.468689,0.4492188-0.8119507,0.4492188
		H1.9140625l-0.7388306,0.7388306C1.3536377,19.8068848,1.6485596,20,2,20h20c0.5512695,0,1-0.4487305,1-1v-0.2929688
		L22.6367188,18.34375z"/>
	<circle fill="#currentFill" cx="8" cy="9" r="3"/>
		</g>
</symbol>
<!-- Webp -->

<symbol id="webp__sun" viewBox="0 0 24 24">
<g>
	<circle fill="currentFill" cx="8" cy="9" r="2"/>
	<polygon opacity="0.1" fill="#010101" points="14.979187,10.7278442 17.2815552,12.9885864 15,10.7070313 	"/>
	<linearGradient id="SVGID_1_" gradientUnits="userSpaceOnUse" x1="-0.7076802" y1="6.0743113" x2="24.7076797" y2="17.9256878">
		<stop  offset="0" style="stop-color:#FFFFFF;stop-opacity:0.2"/>
		<stop  offset="1" style="stop-color:#FFFFFF;stop-opacity:0"/>
	</linearGradient>
	<path fill="url(#SVGID_1_)" d="M22,3H2C0.8969727,3,0,3.8969727,0,5v14c0,1.1030273,0.8969727,2,2,2h20
		c1.1030273,0,2-0.8969727,2-2V5C24,3.8969727,23.1030273,3,22,3z"/>
	</g>
</symbol>

<symbol id="svg__bg" viewBox="0 0 512 512">
<g>
<path style="fill:#FFFFFF;" d="M399.983,501.981c30.926,0-333.988,0-333.988,0c-30.926,0-55.996-25.07-55.996-55.996V10.019h389.994
	"/>
</g>
</symbol>
<!-- SVG -->

<symbol id="svg__pen" viewBox="0 0 512 512">
<g>
<path style="fill:currentFill;" d="M489.886,42.349L489.886,42.349c-16.153-16.153-42.341-16.153-58.494,0L258.548,215.193
	l58.494,58.494l172.845-172.845C506.038,84.69,506.038,58.502,489.886,42.349z"/>
</g>
</symbol>

<symbol id="svg__afterPen" viewBox="0 0 512 512">
<g>
<polygon style="fill:currentFill;" points="361.83,226.309 309.336,173.815 299.375,174.366 258.548,215.193 317.041,273.687 
	361.83,228.897 "/>
</g>
</symbol>

<symbol id="svg__brush" viewBox="0 0 512 512">
<g>
<path style="fill:currentFill;" d="M317.027,273.672l-58.464-58.464c-27.546-7.339-58.146-0.208-79.753,21.399
	c-46.207,46.207-2.416,84.376-31.497,148.314c65.345,10.579,116.055,0.762,148.314-31.497
	C317.235,331.817,324.366,301.218,317.027,273.672z"/>
</g>
</symbol>

<symbol id="svg__color" viewBox="0 0 512 512">
<g>
<path style="fill:currentFill;" d="M295.626,353.425c0.231-0.231,0.452-0.469,0.68-0.703c-1.165,0.179-41.538,5.98-63.34-46.124
	c-26.424-63.15-70.867-37.121-70.867-37.121l-3.311-0.303c-9.268,33.592,10.578,67.259-11.476,115.747
	C212.658,395.5,263.369,385.683,295.626,353.425z"/>
</g>
</symbol>

<symbol id="svg__inside" viewBox="0 0 512 512">
<g>
<path style="fill:currentFill;" d="M75.161,501.981h330.631c30.926,0,55.996-25.07,55.996-55.996H121.991
	c0,30.926-25.07,55.996-55.996,55.996"/>
</g>
</symbol>

<symbol id="svg__border" viewBox="0 0 512 512">
<g>
<path d="M496.956,35.279L496.956,35.279c-20.025-20.025-52.608-20.024-72.634,0l-1.512,1.511c-0.001,0.002-0.003,0.003-0.005,0.005
	c-0.003,0.003-0.006,0.007-0.01,0.01l-44.12,44.12c-0.001,0.002-0.003,0.003-0.005,0.005c-0.003,0.003-0.006,0.007-0.01,0.01
	L255.388,204.213c-30.172-6-61.756,3.433-83.649,25.324c-28.553,28.553-26.538,55.759-24.59,82.069
	c1.551,20.939,3.154,42.592-8.937,69.176c-1.291,2.837-1.185,6.114,0.287,8.861c1.472,2.748,4.141,4.652,7.217,5.15
	c17.396,2.816,33.728,4.222,48.975,4.222c46.161,0,82.372-12.885,108.006-38.518c0.146-0.146,0.284-0.296,0.428-0.443
	c0.271-0.252,0.529-0.517,0.77-0.796c21.028-21.833,30.014-52.797,24.126-82.409l168.935-168.935
	C506.656,98.212,512,85.315,512,71.596S506.656,44.979,496.956,35.279z M431.218,145.368c-9.838-12.512-15.191-27.832-15.191-43.975
	c0-19.048,7.429-36.968,20.92-50.458l1.517-1.517c0.705-0.705,1.439-1.37,2.197-1.998c-2.689,24.401,4.569,48.878,20.464,68.04
	L431.218,145.368z M416.989,159.598l-29.905,29.905c-9.838-12.512-15.191-27.832-15.191-43.975c0-19.047,7.428-36.965,20.917-50.455
	l3.789-3.789c-0.366,3.336-0.57,6.706-0.57,10.109C396.029,122.885,403.42,143.247,416.989,159.598z M372.855,203.732l-9.729,9.729
	l-44.352-44.352l33.69-33.69c-0.366,3.336-0.57,6.705-0.57,10.109C351.894,167.02,359.286,187.381,372.855,203.732z
	 M304.632,183.252l44.352,44.352l-31.942,31.942l-44.352-44.352L304.632,183.252z M161.296,376.828
	c8.83-25.735,7.23-47.336,5.798-66.699c-0.875-11.814-1.632-22.123-0.073-31.955c0.044-0.025,0.089-0.043,0.133-0.069
	c0.121-0.071,12.506-6.971,26.356-2.348c12.121,4.049,22.293,15.723,30.234,34.699c12.804,30.6,31.909,43.202,45.682,48.384
	c0.833,0.314,1.654,0.598,2.468,0.868C244.969,376.884,207.917,382.632,161.296,376.828z M291.675,343.029
	c-8.688,0.036-33.979-3.239-49.484-40.291c-10.265-24.533-24.513-39.992-42.348-45.949c-8.468-2.828-16.488-3.032-23.248-2.157
	c2.503-3.588,5.552-7.221,9.285-10.955c17.644-17.644,43.323-24.969,67.578-19.434l54.532,54.533
	C313.184,301.55,307.045,325.576,291.675,343.029z M482.815,93.771l-7.469,7.469c-13.538-17.223-18.406-39.573-13.142-60.968
	c7.789,0.38,15.058,3.594,20.61,9.147l0,0c5.925,5.924,9.187,13.799,9.187,22.175S488.739,87.848,482.815,93.771z"/>
<path d="M399.983,265.999c2.63,0,5.21-1.07,7.068-2.93c1.86-1.86,2.931-4.44,2.931-7.069c0-2.63-1.07-5.21-2.931-7.069
	c-1.859-1.86-4.439-2.93-7.068-2.93c-2.63,0-5.21,1.07-7.069,2.93c-1.86,1.86-2.93,4.44-2.93,7.069c0,2.63,1.069,5.21,2.93,7.069
	C394.774,264.929,397.353,265.999,399.983,265.999z"/>
<path d="M195.767,68.014c-2.63,0-5.21-1.07-7.068-2.93c-1.86-1.86-2.931-4.44-2.931-7.069c0-2.63,1.07-5.21,2.931-7.069
	c1.859-1.86,4.439-2.93,7.068-2.93c2.63,0,5.21,1.07,7.069,2.93c1.86,1.86,2.93,4.44,2.93,7.069c0,2.63-1.069,5.21-2.93,7.069
	C200.976,66.944,198.397,68.014,195.767,68.014z"/>
<path d="M461.787,435.986h-51.806V296.997c0-5.523-4.478-9.999-9.999-9.999c-5.522,0-9.999,4.477-9.999,9.999v138.989H121.991
	c-5.522,0-9.999,4.477-9.999,9.999c0,25.362-20.634,45.996-45.996,45.996s-45.996-20.634-45.996-45.996V68.014h133.711
	c5.522,0,9.999-4.477,9.999-9.999s-4.478-9.999-9.999-9.999H19.998V20.018h369.995v10.217c0,5.523,4.478,9.999,9.999,9.999
	c5.522,0,9.999-4.477,9.999-9.999V10.019c0-5.523-4.478-9.999-9.999-9.999H9.999C4.478,0.02,0,4.496,0,10.019v435.967
	c0,35.266,27.804,64.16,62.642,65.911c0.427,0.055,0.861,0.084,1.303,0.084h341.846c36.39,0,65.995-29.605,65.995-65.995
	C471.786,440.463,467.309,435.986,461.787,435.986z M405.791,491.982H113.276c9.373-9.632,15.838-22.11,17.958-35.997h319.459
	C446.114,476.554,427.72,491.982,405.791,491.982z"/>
</g>
</symbol>
<!-- Git -->

<symbol id="git__bg" viewBox="0 0 32 32">
<g>
<path d="M29.472,14.753,17.247,2.528a1.8,1.8,0,0,0-2.55,0L12.158,5.067l3.22,3.22a2.141,2.141,0,0,1,2.712,2.73l3.1,3.1a2.143,2.143,0,1,1-1.285,1.21l-2.895-2.895v7.617a2.141,2.141,0,1,1-1.764-.062V12.3a2.146,2.146,0,0,1-1.165-2.814L10.911,6.314,2.528,14.7a1.8,1.8,0,0,0,0,2.551L14.753,29.472a1.8,1.8,0,0,0,2.55,0L29.472,17.3a1.8,1.8,0,0,0,0-2.551" style="fill:currentFill"/>
</g>
</symbol>
<!-- Git -->

<symbol id="git__chars" viewBox="0 0 32 32">
<g>
<path d="M12.158,5.067l3.22,3.22a2.141,2.141,0,0,1,2.712,2.73l3.1,3.1a2.143,2.143,0,1,1-1.285,1.21l-2.895-2.895v7.617a2.141,2.141,0,1,1-1.764-.062V12.3a2.146,2.146,0,0,1-1.165-2.814L10.911,6.314" style="fill:#fff"/>
</g>
</symbol>
<!-- VK -->

<symbol id="vk" viewBox="0 0 576 512">
<g>
<path fill="currenFill" d="M545 117.7c3.7-12.5 0-21.7-17.8-21.7h-58.9c-15 0-21.9 7.9-25.6 16.7 0 0-30 73.1-72.4 120.5-13.7 13.7-20 18.1-27.5 18.1-3.7 0-9.4-4.4-9.4-16.9V117.7c0-15-4.2-21.7-16.6-21.7h-92.6c-9.4 0-15 7-15 13.5 0 14.2 21.2 17.5 23.4 57.5v86.8c0 19-3.4 22.5-10.9 22.5-20 0-68.6-73.4-97.4-157.4-5.8-16.3-11.5-22.9-26.6-22.9H38.8c-16.8 0-20.2 7.9-20.2 16.7 0 15.6 20 93.1 93.1 195.5C160.4 378.1 229 416 291.4 416c37.5 0 42.1-8.4 42.1-22.9 0-66.8-3.4-73.1 15.4-73.1 8.7 0 23.7 4.4 58.7 38.1 40 40 46.6 57.9 69 57.9h58.9c16.8 0 25.3-8.4 20.4-25-11.2-34.9-86.9-106.7-90.3-111.5-8.7-11.2-6.2-16.2 0-26.2.1-.1 72-101.3 79.4-135.6z"></path>
</g>
</symbol>
<!-- Telegram -->

<symbol id="telegram" viewBox="0 0 448 512">
<g>
<path fill="currentFill" d="M446.7 98.6l-67.6 318.8c-5.1 22.5-18.4 28.1-37.3 17.5l-103-75.9-49.7 47.8c-5.5 5.5-10.1 10.1-20.7 10.1l7.4-104.9 190.9-172.5c8.3-7.4-1.8-11.5-12.9-4.1L117.8 284 16.2 252.2c-22.1-6.9-22.5-22.1 4.6-32.7L418.2 66.4c18.4-6.9 34.5 4.1 28.5 32.2z"></path>
</g>
</symbol>
<!-- Skype -->

<symbol id="skype" viewBox="0 0 448 512">
<g>
<path fill="currentFill" d="M424.7 299.8c2.9-14 4.7-28.9 4.7-43.8 0-113.5-91.9-205.3-205.3-205.3-14.9 0-29.7 1.7-43.8 4.7C161.3 40.7 137.7 32 112 32 50.2 32 0 82.2 0 144c0 25.7 8.7 49.3 23.3 68.2-2.9 14-4.7 28.9-4.7 43.8 0 113.5 91.9 205.3 205.3 205.3 14.9 0 29.7-1.7 43.8-4.7 19 14.6 42.6 23.3 68.2 23.3 61.8 0 112-50.2 112-112 .1-25.6-8.6-49.2-23.2-68.1zm-194.6 91.5c-65.6 0-120.5-29.2-120.5-65 0-16 9-30.6 29.5-30.6 31.2 0 34.1 44.9 88.1 44.9 25.7 0 42.3-11.4 42.3-26.3 0-18.7-16-21.6-42-28-62.5-15.4-117.8-22-117.8-87.2 0-59.2 58.6-81.1 109.1-81.1 55.1 0 110.8 21.9 110.8 55.4 0 16.9-11.4 31.8-30.3 31.8-28.3 0-29.2-33.5-75-33.5-25.7 0-42 7-42 22.5 0 19.8 20.8 21.8 69.1 33 41.4 9.3 90.7 26.8 90.7 77.6 0 59.1-57.1 86.5-112 86.5z"></path>
</g>
</symbol>
<!-- Viber -->

<symbol id="viber" viewBox="0 0 512 512">
<g>
<path fill="currentFill" d="M444 49.9C431.3 38.2 379.9.9 265.3.4c0 0-135.1-8.1-200.9 52.3C27.8 89.3 14.9 143 13.5 209.5c-1.4 66.5-3.1 191.1 117 224.9h.1l-.1 51.6s-.8 20.9 13 25.1c16.6 5.2 26.4-10.7 42.3-27.8 8.7-9.4 20.7-23.2 29.8-33.7 82.2 6.9 145.3-8.9 152.5-11.2 16.6-5.4 110.5-17.4 125.7-142 15.8-128.6-7.6-209.8-49.8-246.5zM457.9 287c-12.9 104-89 110.6-103 115.1-6 1.9-61.5 15.7-131.2 11.2 0 0-52 62.7-68.2 79-5.3 5.3-11.1 4.8-11-5.7 0-6.9.4-85.7.4-85.7-.1 0-.1 0 0 0-101.8-28.2-95.8-134.3-94.7-189.8 1.1-55.5 11.6-101 42.6-131.6 55.7-50.5 170.4-43 170.4-43 96.9.4 143.3 29.6 154.1 39.4 35.7 30.6 53.9 103.8 40.6 211.1zm-139-80.8c.4 8.6-12.5 9.2-12.9.6-1.1-22-11.4-32.7-32.6-33.9-8.6-.5-7.8-13.4.7-12.9 27.9 1.5 43.4 17.5 44.8 46.2zm20.3 11.3c1-42.4-25.5-75.6-75.8-79.3-8.5-.6-7.6-13.5.9-12.9 58 4.2 88.9 44.1 87.8 92.5-.1 8.6-13.1 8.2-12.9-.3zm47 13.4c.1 8.6-12.9 8.7-12.9.1-.6-81.5-54.9-125.9-120.8-126.4-8.5-.1-8.5-12.9 0-12.9 73.7.5 133 51.4 133.7 139.2zM374.9 329v.2c-10.8 19-31 40-51.8 33.3l-.2-.3c-21.1-5.9-70.8-31.5-102.2-56.5-16.2-12.8-31-27.9-42.4-42.4-10.3-12.9-20.7-28.2-30.8-46.6-21.3-38.5-26-55.7-26-55.7-6.7-20.8 14.2-41 33.3-51.8h.2c9.2-4.8 18-3.2 23.9 3.9 0 0 12.4 14.8 17.7 22.1 5 6.8 11.7 17.7 15.2 23.8 6.1 10.9 2.3 22-3.7 26.6l-12 9.6c-6.1 4.9-5.3 14-5.3 14s17.8 67.3 84.3 84.3c0 0 9.1.8 14-5.3l9.6-12c4.6-6 15.7-9.8 26.6-3.7 14.7 8.3 33.4 21.2 45.8 32.9 7 5.7 8.6 14.4 3.8 23.6z"></path>
</g>
</symbol>
</svg>
