 <svg display="none" xmlns="http://www.w3.org/2000/svg">
 
<!-- HTML -->

<symbol id="html" viewBox="0 0 512 512">
<g>
<polygon style="fill:#FF5722;" points="32,0 72.8,460.8 256,512 439.136,460.832 480,0 "/>
<polygon style="fill:#FAFAFA;" points="391.52,150.688 256,150.688 176.8,150.688 181.92,208.576 256,208.576 386.4,208.576 
	371.008,382.144 256,414.24 255.904,414.272 140.96,382.144 132.928,291.36 189.248,291.36 193.44,338.464 255.936,355.456 
	256,355.424 256,355.424 318.56,338.432 325.088,265.12 256,265.12 256,265.12 130.624,265.12 115.456,94.208 256,94.208 
	396.512,94.208 "/>
</g>
</symbol>

<!-- SCSS -->

<symbol id="scss" viewBox="0 0 512 512">
<g>
<path style="fill:#F2F2F2;" d="M512,256c0,7.91-0.355,15.726-1.066,23.448c-0.543,6.113-1.317,12.152-2.299,18.119
	C488.782,419.182,383.227,512,256,512c-64.805,0-123.977-24.074-169.075-63.781c-16.666-14.66-31.41-31.462-43.802-49.977
	C15.882,357.564,0,308.632,0,256C0,114.615,114.615,0,256,0S512,114.615,512,256z"/>
<path style="fill:#CD6699;" d="M446.767,284.975c-7.764,2.936-7.45,2.988-11.557-4.493c-5.245-9.529-8.035-19.55-8.276-30.448
	c-0.199-9.352,2.361-18.045,5.58-26.572c2.57-6.781-0.773-9.174-6.646-9.791c-4.274-0.439-8.683-0.397-12.967,0.042
	c-11.139,1.139-12.236,2.1-15.193,12.915c-1.755,6.416-3.156,12.884-6.071,18.975c-7.189,14.994-15.36,29.435-23.74,43.771
	c-1.505,2.581-2.748,5.36-4.869,7.565c-6.071-9.091-8.359-19.132-8.871-29.665c-0.512-10.397,2.675-20.062,6.175-29.623
	c1.181-3.218,0.199-5.214-2.581-6.604c-1.233-0.616-2.612-1.191-3.96-1.296c-7.147-0.564-14.273-0.481-21.243,1.473
	c-3.135,0.867-5.183,2.623-5.883,6.144c-1.358,6.886-3.479,13.573-6.343,20.01c-7.941,17.826-15.83,35.683-23.761,53.52
	c-6.896,15.496-13.688,31.033-21.859,45.913c-0.575,1.055-1.055,2.884-2.497,2.518c-1.463-0.366-0.951-2.163-1.014-3.396
	c-0.47-8.777,1.923-17.147,3.96-25.527c3.229-13.26,6.76-26.457,10.188-39.675c0.982-3.793-0.669-6.343-3.814-8.161
	c-4.524-2.602-9.028-2.727-13.928,0.919c0.669-5.392,0.961-10.125,0.731-14.858c-0.522-10.553-5.413-17.418-13.928-19.007
	c-6.217-1.16-12.1,0.648-17.659,3.281c-12.957,6.134-23.374,15.381-32.131,26.603c-1.024,1.306-2.058,2.508-3.542,3.312
	c-16.436,8.955-32.862,17.91-49.256,26.948c-1.797,1.003-2.957,0.721-4.253-0.669c-8.255-8.85-17.836-16.154-27.324-23.562
	c-13.26-10.365-26.979-20.187-38.421-32.684c-6.687-7.314-12.267-15.329-15.057-25.004c-4.556-15.82-1.149-30.553,6.437-44.554
	c8.976-16.562,22.288-29.351,36.968-40.741c23.312-18.077,48.88-32.434,75.828-44.251c30.177-13.218,61.482-21.734,94.824-20.449
	c13.208,0.512,26.028,2.8,37.794,9.268c8.328,4.577,13.845,11.191,15.402,20.898c1.829,11.368-0.899,21.87-5.945,31.828
	c-11.274,22.246-29.194,38.003-50.375,50.343c-17.638,10.271-36.665,16.792-56.801,20.208c-11.128,1.891-22.298,3.03-33.489,1.327
	c-12.842-1.954-24.712-6.248-33.499-16.593c-1.014-1.191-2.299-2.017-4.023-1.181c-1.766,0.857-1.63,2.424-1.463,3.929
	c0.125,1.034,0.408,2.079,0.773,3.062c2.351,6.343,6.75,11.128,11.901,15.308c13.396,10.898,29.268,14.096,45.934,14.42
	c16.311,0.324,32.371-1.745,48.264-5.548c35.85-8.568,65.881-26.154,87.803-56.289c13.103-18.014,21.4-37.867,20.668-60.583
	c-0.47-14.409-5.319-27.136-15.82-37.48c-12.487-12.278-27.982-18.453-44.607-22.162c-18.516-4.117-37.219-4.702-56.111-2.445
	c-16.436,1.964-32.496,5.329-48.128,10.71c-23.918,8.244-47.02,18.369-69.13,30.678c-22.653,12.601-44.001,27.032-62.725,45.108
	c-16.572,15.997-30.814,33.646-38.839,55.557c-3.427,9.383-5.893,19.028-3.594,29.174c2.947,13.061,9.383,24.367,17.847,34.565
	c12.8,15.444,28.505,27.606,44.701,39.225c13.009,9.341,26.624,17.847,39.121,27.888c3.542,2.842,3.521,2.842-0.648,5.026
	c-4.869,2.539-9.791,4.984-14.576,7.69C91.951,342.695,73.3,354.523,58.075,370.96c-7.492,8.098-12.581,17.189-14.952,27.282
	c12.392,18.516,27.136,35.318,43.802,49.977c28.432-2.215,50.197-17.011,66.278-41.482c7.764-11.818,11.4-25.192,12.769-39.299
	c1.202-12.434-0.063-24.472-3.72-36.342c-0.637-2.09-3.009-4.169-2.079-6.008c0.867-1.693,3.48-2.55,5.402-3.657
	c7.753-4.504,15.527-8.944,23.51-13.531c0.345,1.714-0.324,2.717-0.616,3.803c-4.577,16.792-7.764,33.719-4.284,51.169
	c2.163,10.867,5.768,21.096,12.622,30.093c7.053,9.258,22.8,8.202,29.194-0.251c6.071-8.025,10.094-17.074,14.284-26.081
	c2.299-4.932,4.409-9.947,6.604-14.932c-0.408,5.998-0.387,11.849-0.167,17.68c0.219,5.747,1.139,11.421,4.127,16.499
	c3.594,6.102,10.355,7.879,16.635,4.618c6.625-3.438,11.139-9.101,14.649-15.245c15.057-26.425,29.027-53.415,40.594-81.596
	c2.466-5.987,4.995-11.964,7.785-18.62c0.428,2.184,0.711,3.521,0.972,4.859c2.57,13.427,7.147,26.133,13.772,38.076
	c1.421,2.56,1.264,4.326-0.533,6.781c-6.102,8.307-12.79,16.123-19.383,24.022c-5.538,6.646-11.463,12.999-16.144,20.313
	c-4.2,6.583-1.787,13.322,5.204,14.817c2.152,0.46,4.42,0.596,6.625,0.564c12.215-0.146,23.489-3.793,33.991-9.77
	c14.137-8.056,22.518-19.864,22.131-36.676c-0.178-7.649-2.247-14.994-5.329-22.006c-0.679-1.557-0.711-2.685,0.303-4.148
	c9.791-14.023,18.442-28.724,26.394-43.854c1.411-2.664,2.403-5.622,4.681-8.223c0.303,1.055,0.543,1.714,0.679,2.393
	c2.529,12.539,5.935,24.795,12.33,35.986c1.755,3.062,0.878,4.618-1.546,6.666c-8.349,7.095-15.391,15.37-20.919,24.848
	c-4.305,7.377-7.252,15.255-7.22,23.897c0.031,9.613,7.387,15.276,16.76,13.019c9.77-2.341,18.829-6.322,26.958-12.267
	c17.711-12.967,22.904-26.645,17.356-45.735c-2.173-7.513-2.132-7.387,5.402-9.665c16.478-4.974,33.196-5.183,49.998-2.445
	c1.902,0.313,3.783,0.669,5.642,1.076c0.982-5.966,1.755-12.006,2.299-18.119C489.441,274.192,467.978,276.919,446.767,284.975z
	 M98.586,419.401c-4.775,1.693-9.738,2.414-14.817,2.017c-6.322-0.502-10.334-4.963-10.742-11.672
	c-0.46-7.732,1.829-14.712,5.214-21.504c6.154-12.33,16.488-20.699,27.032-28.912c10.25-7.993,21.264-14.817,32.402-21.452
	c3.375-2.006,3.427-1.985,4.2,2.038c1.003,5.162,1.902,10.334,1.567,15.026C144.321,383.08,123.883,410.446,98.586,419.401z
	 M251.956,277.514c-1.776,11.86-5.653,23.155-9.78,34.314c-5.622,15.235-11.097,30.542-18.171,45.192
	c-1.62,3.375-3.323,6.729-5.945,9.477c-2.476,2.602-4.671,2.299-6.384-0.878c-3.344-6.207-2.926-13.113-3.469-18.129
	c0.157-25.161,8.6-45.725,22.507-64.209c3.887-5.151,8.85-9.341,15.423-11.024C250.598,271.12,252.656,272.917,251.956,277.514z
	 M349.341,352.005c-4.765,8.234-11.63,14.221-20.052,18.484c-0.899,0.449-2.058,1.243-2.873,0.188
	c-0.773-0.993,0.47-1.651,1.034-2.278c8.37-9.143,16.635-18.359,24.085-28.275c0.115-0.157,0.397-0.178,1.034-0.449
	C352.496,344.263,351.493,348.296,349.341,352.005z M407.134,351.65c-1.243,0.585-2.685,1.682-3.897,0.742
	c-1.337-1.034-0.805-2.863-0.397-4.263c1.902-6.384,4.462-12.497,7.993-18.192c2.967-4.796,6.646-8.986,10.689-12.894
	c1.63-1.567,2.361-1.379,2.915,0.878c0.575,2.309,0.627,4.618,0.669,6.969C425.002,337.753,418.471,346.311,407.134,351.65z"/>
</g>
</symbol>

<!-- Bootstrap -->

<symbol id="bootstrap" viewBox="0 0 128 128">
<g>
<path fill="#5B4282" d="M75.701 65.603c-2.334-.768-5.694-.603-10.08-.603h-17.621v23h18.844c2.944 0 5.012-.315 6.203-.535 2.099-.376 3.854-1.104 5.264-1.982 1.409-.876 2.568-2.205 3.478-3.881.908-1.676 1.363-3.637 1.363-5.83 0-2.568-.658-4.54-1.975-6.436-1.316-1.896-3.141-2.965-5.476-3.733zM73.282 55.087c2.317-.688 4.064-1.89 5.239-3.487 1.176-1.598 1.763-3.631 1.763-6.044 0-2.286-.549-4.314-1.646-6.054s-2.662-2.413-4.699-3.056c-2.037-.641-5.53-.446-10.48-.446h-15.459v20h16.587c4.042 0 6.939-.38 8.695-.913zM126 18.625c0-9.182-7.443-16.625-16.625-16.625h-91.75c-9.182 0-16.625 7.443-16.625 16.625v91.75c0 9.182 7.443 16.625 16.625 16.625h91.75c9.182 0 16.625-7.443 16.625-16.625v-91.75zm-35.447 66.12c-1.362 2.773-3.047 4.911-5.052 6.415-2.006 1.504-4.521 2.78-7.544 3.548-3.022.769-6.728 1.292-11.113 1.292h-27.844v-69h27.42c5.264 0 9.485.609 12.665 2.002 3.181 1.395 5.671 3.497 7.474 6.395 1.801 2.898 2.702 5.907 2.702 9.071 0 2.945-.8 5.708-2.397 8.308-1.598 2.602-4.011 4.694-7.237 6.292 4.166 1.222 7.37 3.304 9.61 6.248 2.24 2.945 3.36 6.422 3.36 10.432 0 3.227-.681 6.225-2.044 8.997z"/>
</g>
</symbol>

<!-- JavaScript -->

<symbol id="javascript" viewBox="0 0 128 128">
<g>
<path fill="#F0DB4F" d="M1.408 1.408h125.184v125.185h-125.184z"/><path fill="#323330" d="M116.347 96.736c-.917-5.711-4.641-10.508-15.672-14.981-3.832-1.761-8.104-3.022-9.377-5.926-.452-1.69-.512-2.642-.226-3.665.821-3.32 4.784-4.355 7.925-3.403 2.023.678 3.938 2.237 5.093 4.724 5.402-3.498 5.391-3.475 9.163-5.879-1.381-2.141-2.118-3.129-3.022-4.045-3.249-3.629-7.676-5.498-14.756-5.355l-3.688.477c-3.534.893-6.902 2.748-8.877 5.235-5.926 6.724-4.236 18.492 2.975 23.335 7.104 5.332 17.54 6.545 18.873 11.531 1.297 6.104-4.486 8.08-10.234 7.378-4.236-.881-6.592-3.034-9.139-6.949-4.688 2.713-4.688 2.713-9.508 5.485 1.143 2.499 2.344 3.63 4.26 5.795 9.068 9.198 31.76 8.746 35.83-5.176.165-.478 1.261-3.666.38-8.581zm-46.885-37.793h-11.709l-.048 30.272c0 6.438.333 12.34-.714 14.149-1.713 3.558-6.152 3.117-8.175 2.427-2.059-1.012-3.106-2.451-4.319-4.485-.333-.584-.583-1.036-.667-1.071l-9.52 5.83c1.583 3.249 3.915 6.069 6.902 7.901 4.462 2.678 10.459 3.499 16.731 2.059 4.082-1.189 7.604-3.652 9.448-7.401 2.666-4.915 2.094-10.864 2.07-17.444.06-10.735.001-21.468.001-32.237z"/>
</g>
</symbol>

<!-- Gulp -->

<symbol id="gulp" viewBox="0 0 128 128">
<g>
<path fill-rule="evenodd" clip-rule="evenodd" fill="#EB4A4B" d="M36.965 35.459c.877 9.232 1.747 18.412 2.637 27.798 1.451-2.495 2.501-4.888 4.085-6.848 1.475-1.826 3.334-3.511 5.357-4.678 2.641-1.524 6.104-.089 6.96 2.614.23.725-.319 1.697-.511 2.556-.646-.341-1.479-.529-1.901-1.051-1.793-2.217-2.873-2.479-4.856-.563-3.699 3.576-5.779 8.056-6.573 13.091-.153.974.456 2.067.713 3.105 1.011-.348 2.185-.476 3.002-1.084 2.656-1.977 4.302-4.666 5.21-7.88.197-.696 1.265-1.145 1.933-1.708.32.658 1.05 1.433.897 1.954-1.407 4.84-2.934 9.649-4.536 14.429-.162.484-1.051.725-1.604 1.079-.223-.636-.692-1.302-.617-1.901.168-1.358.605-2.683.91-3.927l-7.24 3.333c.405 4.622.825 9.807 1.323 14.985.382 3.954 1.029 4.978 4.923 5.728 4.544.875 9.173 1.434 13.792 1.774 6.825.503 13.59-.119 20.23-1.904 2.472-.664 3.458-2.29 3.635-4.717.162-2.235.524-4.456.775-6.685.493-4.391.972-8.783 1.476-13.358-1.667 1.056-2.978 2.238-4.511 2.739-1.116.365-2.524-.169-3.803-.303.245-1.174.23-2.497.796-3.487.922-1.618 2.224-3.021 3.364-4.515l-.491-.591c-.817.483-1.832.8-2.413 1.485-1.182 1.394-2.339 2.886-3.13 4.52-1.324 2.735-2.333 5.622-3.518 8.426-.515 1.216-.959 3.076-2.684 2.366-1.845-.761-.547-2.386-.114-3.542.689-1.844 1.599-3.606 2.215-4.962-1.746.208-3.516.459-5.294.614-.752.064-1.646-.348-2.261-.07-2.045.924-3.341.553-3.766-1.711-.947.615-1.749 1.448-2.694 1.672-1.147.273-2.703.452-3.543-.121-.673-.459-.918-2.184-.688-3.196.457-2.012 1.311-3.946 2.122-5.859.502-1.185 1.007-3.077 2.701-2.253 1.674.813.154 2.185-.232 3.286-.599 1.702-1.209 3.401-1.813 5.101l.96.58c.914-.794 2.053-1.441 2.693-2.415 1.048-1.592 1.681-3.452 2.673-5.086.411-.677 1.296-1.065 1.967-1.584.136.862.462 1.748.354 2.58-.107.841-.698 1.61-.981 2.442-.425 1.246-.768 2.52-1.2 3.969 2.043.078 2.918-.782 3.495-2.299 1.826-4.793 3.672-9.581 5.679-14.3.343-.808 1.509-1.264 2.296-1.884.091.974.525 2.078.216 2.899-1.645 4.349-3.492 8.62-5.228 12.935-.293.727-.387 1.534-.572 2.304 3.059-1.375 5.612-2.895 6.544-6.146.228-.79 1.162-1.377 1.771-2.058l1.416 1.5c.43-.362.824-.774 1.291-1.075 1.47-.947 3.053-1.782 4.603-.315 1.604 1.517.39 2.995-.448 4.307-.912 1.431-2.029 2.73-3.057 4.086 2.312-1.49 5.469-2.158 5.889-5.378 1.024-7.865 1.924-15.746 2.837-23.625.271-2.332.416-4.679.627-7.109-18.21 4.409-36.029 4.436-54.088-.069zM44.781 96.828c.877 2.317 2.209 4.593 2.558 7.011.737 5.147.924 10.372 1.446 15.554.076.755.565 1.792 1.175 2.124 8.98 4.88 18.047 5.726 27.209.389 1.367-.796 1.62-1.847 1.797-3.325.857-7.181-1.051-14.798 3.54-21.56-12.856 3.189-25.403 3.288-37.725-.193zM75.772 36.748c4.362-.421 8.671-1.445 12.985-2.291.813-.159 1.535-.778 2.299-1.185-1.007-.885-1.878-1.311-2.788-1.418-4.53-.535-9.076-.947-13.603-1.508-.684-.085-1.905-.929-1.854-1.083 1.321-3.98 1.256-8.485 4.254-11.839 3.789-4.24 7.617-8.443 11.416-12.648-2.826-3.04-2.864-3.044-5.425-.383-1.448 1.504-2.771 3.15-4.342 4.512-5.813 5.038-9.896 11.005-10.692 18.872-.183 1.805-1.174 2.457-3.069 2.485-6.256.091-12.519.263-18.761.674-3.093.203-6.148.997-9.221 1.523l-.028 1.149c1.923.593 3.809 1.372 5.773 1.749 10.944 2.098 21.991 2.458 33.056 1.391zm-3.496-2.748c-2.477 2-4.524 2-6.501 0h6.501z"/>
</g>
</symbol>

<!-- Webp -->

<symbol id="webp" viewBox="0 0 24 24">
<g>
	<path fill="#303C42" d="M22,3H2C0.8969727,3,0,3.8969727,0,5v14c0,1.1030273,0.8969727,2,2,2h20c1.1030273,0,2-0.8969727,2-2V5
		C24,3.8969727,23.1030273,3,22,3z"/>
	<path fill="#57C1EF" d="M1,5c0-0.5512695,0.4487305-1,1-1h20c0.5512695,0,1,0.4487305,1,1v12.2929688l-7.6464844-7.6464844
		c-0.1953125-0.1953125-0.5117188-0.1953125-0.7070313,0L8.5,15.7929688l-2.1464844-2.1464844
		c-0.1953125-0.1953125-0.5117188-0.1953125-0.7070313,0L1,18.2929688V5z"/>
	<path fill="#7CB342" d="M22,20H2c-0.3514404,0-0.6463623-0.1931152-0.8247681-0.4682007L6,14.7070313l3.1464844,3.1464844
		c0.1953125,0.1953125,0.5117188,0.1953125,0.7070313,0s0.1953125-0.5117188,0-0.7070313L9.2070313,16.5L15,10.7070313l8,8V19
		C23,19.5512695,22.5512695,20,22,20z"/>
	<path opacity="0.1" fill="#010101" d="M22.6367188,18.34375c-0.1801758,0.2644043-0.468689,0.4492188-0.8119507,0.4492188
		H1.9140625l-0.7388306,0.7388306C1.3536377,19.8068848,1.6485596,20,2,20h20c0.5512695,0,1-0.4487305,1-1v-0.2929688
		L22.6367188,18.34375z"/>
	<circle fill="#303C42" cx="8" cy="9" r="3"/>
	<circle fill="#FFCB29" cx="8" cy="9" r="2"/>
	<polygon opacity="0.1" fill="#010101" points="14.979187,10.7278442 17.2815552,12.9885864 15,10.7070313 	"/>
	<linearGradient id="SVGID_1_" gradientUnits="userSpaceOnUse" x1="-0.7076802" y1="6.0743113" x2="24.7076797" y2="17.9256878">
		<stop  offset="0" style="stop-color:#FFFFFF;stop-opacity:0.2"/>
		<stop  offset="1" style="stop-color:#FFFFFF;stop-opacity:0"/>
	</linearGradient>
	<path fill="url(#SVGID_1_)" d="M22,3H2C0.8969727,3,0,3.8969727,0,5v14c0,1.1030273,0.8969727,2,2,2h20
		c1.1030273,0,2-0.8969727,2-2V5C24,3.8969727,23.1030273,3,22,3z"/>
</g>
</symbol>

<!-- SVG -->

<symbol id="svg" viewBox="0 0 512 512">
<g>
<path style="fill:#F5B955;" d="M489.886,42.349L489.886,42.349c-16.153-16.153-42.341-16.153-58.494,0L258.548,215.193
	l58.494,58.494l172.845-172.845C506.038,84.69,506.038,58.502,489.886,42.349z"/>
<polygon style="fill:#D7D7E6;" points="361.83,226.309 309.336,173.815 299.375,174.366 258.548,215.193 317.041,273.687 
	361.83,228.897 "/>
<path style="fill:#E8AB82;" d="M317.027,273.672l-58.464-58.464c-27.546-7.339-58.146-0.208-79.753,21.399
	c-46.207,46.207-2.416,84.376-31.497,148.314c65.345,10.579,116.055,0.762,148.314-31.497
	C317.235,331.817,324.366,301.218,317.027,273.672z"/>
<path style="fill:#FF5A5A;" d="M295.626,353.425c0.231-0.231,0.452-0.469,0.68-0.703c-1.165,0.179-41.538,5.98-63.34-46.124
	c-26.424-63.15-70.867-37.121-70.867-37.121l-3.311-0.303c-9.268,33.592,10.578,67.259-11.476,115.747
	C212.658,395.5,263.369,385.683,295.626,353.425z"/>
<path style="fill:#9BBEFF;" d="M75.161,501.981h330.631c30.926,0,55.996-25.07,55.996-55.996H121.991
	c0,30.926-25.07,55.996-55.996,55.996"/>
<path d="M496.956,35.279L496.956,35.279c-20.025-20.025-52.608-20.024-72.634,0l-1.512,1.511c-0.001,0.002-0.003,0.003-0.005,0.005
	c-0.003,0.003-0.006,0.007-0.01,0.01l-44.12,44.12c-0.001,0.002-0.003,0.003-0.005,0.005c-0.003,0.003-0.006,0.007-0.01,0.01
	L255.388,204.213c-30.172-6-61.756,3.433-83.649,25.324c-28.553,28.553-26.538,55.759-24.59,82.069
	c1.551,20.939,3.154,42.592-8.937,69.176c-1.291,2.837-1.185,6.114,0.287,8.861c1.472,2.748,4.141,4.652,7.217,5.15
	c17.396,2.816,33.728,4.222,48.975,4.222c46.161,0,82.372-12.885,108.006-38.518c0.146-0.146,0.284-0.296,0.428-0.443
	c0.271-0.252,0.529-0.517,0.77-0.796c21.028-21.833,30.014-52.797,24.126-82.409l168.935-168.935
	C506.656,98.212,512,85.315,512,71.596S506.656,44.979,496.956,35.279z M431.218,145.368c-9.838-12.512-15.191-27.832-15.191-43.975
	c0-19.048,7.429-36.968,20.92-50.458l1.517-1.517c0.705-0.705,1.439-1.37,2.197-1.998c-2.689,24.401,4.569,48.878,20.464,68.04
	L431.218,145.368z M416.989,159.598l-29.905,29.905c-9.838-12.512-15.191-27.832-15.191-43.975c0-19.047,7.428-36.965,20.917-50.455
	l3.789-3.789c-0.366,3.336-0.57,6.706-0.57,10.109C396.029,122.885,403.42,143.247,416.989,159.598z M372.855,203.732l-9.729,9.729
	l-44.352-44.352l33.69-33.69c-0.366,3.336-0.57,6.705-0.57,10.109C351.894,167.02,359.286,187.381,372.855,203.732z
	 M304.632,183.252l44.352,44.352l-31.942,31.942l-44.352-44.352L304.632,183.252z M161.296,376.828
	c8.83-25.735,7.23-47.336,5.798-66.699c-0.875-11.814-1.632-22.123-0.073-31.955c0.044-0.025,0.089-0.043,0.133-0.069
	c0.121-0.071,12.506-6.971,26.356-2.348c12.121,4.049,22.293,15.723,30.234,34.699c12.804,30.6,31.909,43.202,45.682,48.384
	c0.833,0.314,1.654,0.598,2.468,0.868C244.969,376.884,207.917,382.632,161.296,376.828z M291.675,343.029
	c-8.688,0.036-33.979-3.239-49.484-40.291c-10.265-24.533-24.513-39.992-42.348-45.949c-8.468-2.828-16.488-3.032-23.248-2.157
	c2.503-3.588,5.552-7.221,9.285-10.955c17.644-17.644,43.323-24.969,67.578-19.434l54.532,54.533
	C313.184,301.55,307.045,325.576,291.675,343.029z M482.815,93.771l-7.469,7.469c-13.538-17.223-18.406-39.573-13.142-60.968
	c7.789,0.38,15.058,3.594,20.61,9.147l0,0c5.925,5.924,9.187,13.799,9.187,22.175S488.739,87.848,482.815,93.771z"/>
<path d="M399.983,265.999c2.63,0,5.21-1.07,7.068-2.93c1.86-1.86,2.931-4.44,2.931-7.069c0-2.63-1.07-5.21-2.931-7.069
	c-1.859-1.86-4.439-2.93-7.068-2.93c-2.63,0-5.21,1.07-7.069,2.93c-1.86,1.86-2.93,4.44-2.93,7.069c0,2.63,1.069,5.21,2.93,7.069
	C394.774,264.929,397.353,265.999,399.983,265.999z"/>
<path d="M195.767,68.014c-2.63,0-5.21-1.07-7.068-2.93c-1.86-1.86-2.931-4.44-2.931-7.069c0-2.63,1.07-5.21,2.931-7.069
	c1.859-1.86,4.439-2.93,7.068-2.93c2.63,0,5.21,1.07,7.069,2.93c1.86,1.86,2.93,4.44,2.93,7.069c0,2.63-1.069,5.21-2.93,7.069
	C200.976,66.944,198.397,68.014,195.767,68.014z"/>
<path d="M461.787,435.986h-51.806V296.997c0-5.523-4.478-9.999-9.999-9.999c-5.522,0-9.999,4.477-9.999,9.999v138.989H121.991
	c-5.522,0-9.999,4.477-9.999,9.999c0,25.362-20.634,45.996-45.996,45.996s-45.996-20.634-45.996-45.996V68.014h133.711
	c5.522,0,9.999-4.477,9.999-9.999s-4.478-9.999-9.999-9.999H19.998V20.018h369.995v10.217c0,5.523,4.478,9.999,9.999,9.999
	c5.522,0,9.999-4.477,9.999-9.999V10.019c0-5.523-4.478-9.999-9.999-9.999H9.999C4.478,0.02,0,4.496,0,10.019v435.967
	c0,35.266,27.804,64.16,62.642,65.911c0.427,0.055,0.861,0.084,1.303,0.084h341.846c36.39,0,65.995-29.605,65.995-65.995
	C471.786,440.463,467.309,435.986,461.787,435.986z M405.791,491.982H113.276c9.373-9.632,15.838-22.11,17.958-35.997h319.459
	C446.114,476.554,427.72,491.982,405.791,491.982z"/>
</g>
</symbol>

<!-- Git -->

<symbol id="git" viewBox="0 0 32 32">
<g>
<path d="M29.472,14.753,17.247,2.528a1.8,1.8,0,0,0-2.55,0L12.158,5.067l3.22,3.22a2.141,2.141,0,0,1,2.712,2.73l3.1,3.1a2.143,2.143,0,1,1-1.285,1.21l-2.895-2.895v7.617a2.141,2.141,0,1,1-1.764-.062V12.3a2.146,2.146,0,0,1-1.165-2.814L10.911,6.314,2.528,14.7a1.8,1.8,0,0,0,0,2.551L14.753,29.472a1.8,1.8,0,0,0,2.55,0L29.472,17.3a1.8,1.8,0,0,0,0-2.551" style="fill:#dd4c35"/><path d="M12.158,5.067l3.22,3.22a2.141,2.141,0,0,1,2.712,2.73l3.1,3.1a2.143,2.143,0,1,1-1.285,1.21l-2.895-2.895v7.617a2.141,2.141,0,1,1-1.764-.062V12.3a2.146,2.146,0,0,1-1.165-2.814L10.911,6.314" style="fill:#fff"/>
</g>
</symbol>

<!-- Vk	-->

<symbol id="vk" viewBox="0 0 576 512">
<g>
<path fill="currentColor" d="M545 117.7c3.7-12.5 0-21.7-17.8-21.7h-58.9c-15 0-21.9 7.9-25.6 16.7 0 0-30 73.1-72.4 120.5-13.7 13.7-20 18.1-27.5 18.1-3.7 0-9.4-4.4-9.4-16.9V117.7c0-15-4.2-21.7-16.6-21.7h-92.6c-9.4 0-15 7-15 13.5 0 14.2 21.2 17.5 23.4 57.5v86.8c0 19-3.4 22.5-10.9 22.5-20 0-68.6-73.4-97.4-157.4-5.8-16.3-11.5-22.9-26.6-22.9H38.8c-16.8 0-20.2 7.9-20.2 16.7 0 15.6 20 93.1 93.1 195.5C160.4 378.1 229 416 291.4 416c37.5 0 42.1-8.4 42.1-22.9 0-66.8-3.4-73.1 15.4-73.1 8.7 0 23.7 4.4 58.7 38.1 40 40 46.6 57.9 69 57.9h58.9c16.8 0 25.3-8.4 20.4-25-11.2-34.9-86.9-106.7-90.3-111.5-8.7-11.2-6.2-16.2 0-26.2.1-.1 72-101.3 79.4-135.6z"></path>
</g>
</symbol>

<!-- Telegram	-->

<symbol id="telegram" viewBox="0 0 448 512">
<g>
<path fill="currentColor" d="M446.7 98.6l-67.6 318.8c-5.1 22.5-18.4 28.1-37.3 17.5l-103-75.9-49.7 47.8c-5.5 5.5-10.1 10.1-20.7 10.1l7.4-104.9 190.9-172.5c8.3-7.4-1.8-11.5-12.9-4.1L117.8 284 16.2 252.2c-22.1-6.9-22.5-22.1 4.6-32.7L418.2 66.4c18.4-6.9 34.5 4.1 28.5 32.2z"></path>
</g>
</symbol>

<!-- Skype	-->

<symbol id="skype" viewBox="0 0 448 512">
<g>
<path fill="currentColor" d="M424.7 299.8c2.9-14 4.7-28.9 4.7-43.8 0-113.5-91.9-205.3-205.3-205.3-14.9 0-29.7 1.7-43.8 4.7C161.3 40.7 137.7 32 112 32 50.2 32 0 82.2 0 144c0 25.7 8.7 49.3 23.3 68.2-2.9 14-4.7 28.9-4.7 43.8 0 113.5 91.9 205.3 205.3 205.3 14.9 0 29.7-1.7 43.8-4.7 19 14.6 42.6 23.3 68.2 23.3 61.8 0 112-50.2 112-112 .1-25.6-8.6-49.2-23.2-68.1zm-194.6 91.5c-65.6 0-120.5-29.2-120.5-65 0-16 9-30.6 29.5-30.6 31.2 0 34.1 44.9 88.1 44.9 25.7 0 42.3-11.4 42.3-26.3 0-18.7-16-21.6-42-28-62.5-15.4-117.8-22-117.8-87.2 0-59.2 58.6-81.1 109.1-81.1 55.1 0 110.8 21.9 110.8 55.4 0 16.9-11.4 31.8-30.3 31.8-28.3 0-29.2-33.5-75-33.5-25.7 0-42 7-42 22.5 0 19.8 20.8 21.8 69.1 33 41.4 9.3 90.7 26.8 90.7 77.6 0 59.1-57.1 86.5-112 86.5z"></path>
</g>
</symbol>

<!-- Viber	-->

<symbol id="viber" viewBox="0 0 512 512">
<g>
<path fill="currentColor" d="M444 49.9C431.3 38.2 379.9.9 265.3.4c0 0-135.1-8.1-200.9 52.3C27.8 89.3 14.9 143 13.5 209.5c-1.4 66.5-3.1 191.1 117 224.9h.1l-.1 51.6s-.8 20.9 13 25.1c16.6 5.2 26.4-10.7 42.3-27.8 8.7-9.4 20.7-23.2 29.8-33.7 82.2 6.9 145.3-8.9 152.5-11.2 16.6-5.4 110.5-17.4 125.7-142 15.8-128.6-7.6-209.8-49.8-246.5zM457.9 287c-12.9 104-89 110.6-103 115.1-6 1.9-61.5 15.7-131.2 11.2 0 0-52 62.7-68.2 79-5.3 5.3-11.1 4.8-11-5.7 0-6.9.4-85.7.4-85.7-.1 0-.1 0 0 0-101.8-28.2-95.8-134.3-94.7-189.8 1.1-55.5 11.6-101 42.6-131.6 55.7-50.5 170.4-43 170.4-43 96.9.4 143.3 29.6 154.1 39.4 35.7 30.6 53.9 103.8 40.6 211.1zm-139-80.8c.4 8.6-12.5 9.2-12.9.6-1.1-22-11.4-32.7-32.6-33.9-8.6-.5-7.8-13.4.7-12.9 27.9 1.5 43.4 17.5 44.8 46.2zm20.3 11.3c1-42.4-25.5-75.6-75.8-79.3-8.5-.6-7.6-13.5.9-12.9 58 4.2 88.9 44.1 87.8 92.5-.1 8.6-13.1 8.2-12.9-.3zm47 13.4c.1 8.6-12.9 8.7-12.9.1-.6-81.5-54.9-125.9-120.8-126.4-8.5-.1-8.5-12.9 0-12.9 73.7.5 133 51.4 133.7 139.2zM374.9 329v.2c-10.8 19-31 40-51.8 33.3l-.2-.3c-21.1-5.9-70.8-31.5-102.2-56.5-16.2-12.8-31-27.9-42.4-42.4-10.3-12.9-20.7-28.2-30.8-46.6-21.3-38.5-26-55.7-26-55.7-6.7-20.8 14.2-41 33.3-51.8h.2c9.2-4.8 18-3.2 23.9 3.9 0 0 12.4 14.8 17.7 22.1 5 6.8 11.7 17.7 15.2 23.8 6.1 10.9 2.3 22-3.7 26.6l-12 9.6c-6.1 4.9-5.3 14-5.3 14s17.8 67.3 84.3 84.3c0 0 9.1.8 14-5.3l9.6-12c4.6-6 15.7-9.8 26.6-3.7 14.7 8.3 33.4 21.2 45.8 32.9 7 5.7 8.6 14.4 3.8 23.6z"></path>
</g>
</symbol>

</svg>
